<svg width="1920" height="400" xmlns="http://www.w3.org/2000/svg">
  <defs>
    <linearGradient id="servicesBgGradient" x1="0%" y1="0%" x2="100%" y2="100%">
      <stop offset="0%" style="stop-color:#4F46E5; stop-opacity:0.8" />
      <stop offset="100%" style="stop-color:#7C3AED; stop-opacity:0.8" />
    </linearGradient>
    <pattern id="servicesPattern" x="0" y="0" width="80" height="80" patternUnits="userSpaceOnUse" patternTransform="rotate(45)">
      <circle cx="10" cy="10" r="2" fill="rgba(255,255,255,0.05)"/>
      <path d="M0 40 L40 0 L80 40 L40 80 Z" fill="rgba(255,255,255,0.03)"/>
    </pattern>
  </defs>
  <rect width="100%" height="100%" fill="url(#servicesBgGradient)" />
  <rect width="100%" height="100%" fill="url(#servicesPattern)" />
  
  <!-- Abstract medical/health icons -->
  <g opacity="0.1" fill="white">
    <!-- Plus sign -->
    <rect x="100" y="150" width="60" height="10" rx="2"/>
    <rect x="125" y="125" width="10" height="60" rx="2"/>
    
    <!-- Heartbeat line -->
    <path d="M300 200 h20 l10 -20 l10 40 l10 -30 l10 10 h20" stroke="white" stroke-width="3" fill="none"/>
    
    <!-- Abstract cell/molecule -->
    <circle cx="500" cy="100" r="30"/>
    <circle cx="520" cy="80" r="10"/>
    <circle cx="480" cy="80" r="10"/>
    <circle cx="500" cy="130" r="10"/>

    <rect x="700" y="250" width="60" height="10" rx="2" transform="rotate(15 730 255)"/>
    <rect x="725" y="225" width="10" height="60" rx="2" transform="rotate(15 730 255)"/>

    <path d="M900 100 h20 l10 20 l10 -40 l10 30 l10 -10 h20" stroke="white" stroke-width="3" fill="none" transform="scale(0.8) translate(100 50)"/>

    <circle cx="1100" cy="300" r="30"/>
    <circle cx="1120" cy="280" r="10"/>
    <circle cx="1080" cy="280" r="10"/>
    <circle cx="1100" cy="330" r="10"/>
  </g>
</svg>